Coordinates
version=1
nRows=6
nColumns=107
inDegrees=yes

Units are S.I. units (second, meters, Newtons, ...)
If the header above contains a line with 'inDegrees', this indicates whether rotational values are in degrees (yes) or radians (no).

endheader
time	sternoclavicular_r2	sternoclavicular_r3	unrotscap_r3	unrotscap_r2	acromioclavicular_r2	acromioclavicular_r3	acromioclavicular_r1	unrothum_r1	unrothum_r3	unrothum_r2	elv_angle	shoulder_elv	shoulder1_r2	shoulder_rot	elbow_flexion	pro_sup	deviation	flexion	proximal_distal_r1	proximal_distal_r3	cmc_flexion	cmc_abduction	mp_flexion	ip_flexion	mcp2_flexion	mcp2_abduction	pm2_flexion	md2_flexion	mcp3_flexion	mcp3_abduction	pm3_flexion	md3_flexion	mcp4_flexion	mcp4_abduction	pm4_flexion	md4_flexion	mcp5_flexion	mcp5_abduction	pm5_flexion	md5_flexion	bicpt_tx	bicpt_ty	bicpt_tz	bicpt2_tx	bicpt2_ty	bicpt2_tz	ptpt_tx	ptpt_ty	ptpt_tz	FCUpt_tx	FCUpt_ty	FCUpt_tz	EDCpt_tx	EDCpt_ty	EDCpt_tz	APLpt_tx	APLpt_ty	APLpt_tz	FPLpt_tx	FPLpt_ty	FPLpt_tz	FPLpt2_tx	FPLpt2_ty	FPLpt2_tz	PEC1pt2_tx	PEC1pt2_ty	PEC1pt2_tz	PEC1pt3_tx	PEC1pt3_ty	PEC1pt3_tz	PEC2pt2_tx	PEC2pt2_ty	PEC2pt2_tz	PEC2pt3_tx	PEC2pt3_ty	PEC2pt3_tz	PEC3pt2_tx	PEC3pt2_ty	PEC3pt2_tz	PEC3pt3_tx	PEC3pt3_ty	PEC3pt3_tz	DELT2pt2a_tx	DELT2pt2a_ty	DELT2pt2a_tz	DELT2pt2_tx	DELT2pt2_ty	DELT2pt2_tz	LAT1pt2_tx	LAT1pt2_ty	LAT1pt2_tz	LAT1pt3_tx	LAT1pt3_ty	LAT1pt3_tz	LAT2pt2_tx	LAT2pt2_ty	LAT2pt2_tz	LAT2pt3_tx	LAT2pt3_ty	LAT2pt3_tz	LAT3pt2_tx	LAT3pt2_ty	LAT3pt2_tz	LAT3pt3_tx	LAT3pt3_ty	LAT3pt3_tz
      1.76666667	     -0.31617816	      0.13391815	     -0.13391815	      0.31617816	     -0.06401965	      0.51738426	      0.23256067	     -0.23256067	     -0.51738426	      0.06401965	    100.46030472	     74.85799051	     -1.75336308	    -31.42252208	     30.45698280	     44.57207282	      0.30559527	     -0.01499690	      0.33829670	     -0.00749845	     31.13085316	     -2.67256312	    -19.75321278	     -2.44366897	     -7.23359631	     12.06968893	     17.46928686	    -13.14650996	     -3.53147508	      3.86120527	     13.70994526	     15.95226371	     -1.77171336	     -4.47795571	     -2.90597283	     21.59644415	      2.29608185	    -14.17513055	    -12.53338410	      4.93691534	      0.00090742	     -0.03109084	     -0.00486228	      0.01655904	     -0.01847379	     -0.00696730	      0.00425663	     -0.06702955	     -0.00364052	      0.00824377	     -0.18339699	     -0.00041101	     -0.00534864	      0.00156945	      0.00010793	      0.00001516	      0.00000606	      0.00003031	      0.00001940	      0.00005820	      0.00003274	     -0.00000996	     -0.00023987	     -0.00028784	      0.00245368	      0.00860868	      0.00598864	     -0.00802645	      0.01937992	     -0.01838181	      0.00245368	      0.00860868	      0.00598864	      0.00054064	      0.01796593	     -0.00944043	      0.00389807	      0.00478718	      0.01584445	      0.00000000	      0.00749244	      0.00000000	     -0.00702834	     -0.03248008	     -0.00617620	      0.01949512	     -0.00080593	     -0.00820357	     -0.00087334	      0.01463891	     -0.00598864	      0.00241209	      0.02112661	     -0.01746688	     -0.00586388	      0.01268428	     -0.00536483	     -0.01222682	      0.02678255	     -0.02998481	     -0.02295647	      0.01418144	     -0.00719469	     -0.01522114	      0.03094133	     -0.03747061
      1.80000000	     -0.31945167	      0.13530465	     -0.13530465	      0.31945167	     -0.06468247	      0.52274093	      0.23496845	     -0.23496845	     -0.52274093	      0.06468247	     99.63576470	     75.63302285	     -1.73897215	    -27.17884443	     30.02851641	     39.10198529	      0.30501341	     -0.06620465	      0.33779835	     -0.03310233	     30.67533947	     -2.57860149	    -19.81112013	      2.79485332	     -7.60020923	     11.94374896	     17.14400531	    -13.84988831	     -5.06196174	      3.51324314	     14.00257633	     15.31096583	     -2.60503312	     -4.76867194	     -4.30533531	     20.21323096	      1.31919457	    -14.16542501	    -13.30475148	      5.00683708	      0.00089325	     -0.03104173	     -0.00485437	      0.01657183	     -0.01835739	     -0.00756534	      0.00466080	     -0.06676820	     -0.00319987	      0.00768995	     -0.18351363	     -0.00037975	     -0.00469223	      0.00134383	      0.00015265	      0.00006407	      0.00002563	      0.00012815	      0.00008201	      0.00024604	      0.00013840	     -0.00000942	     -0.00024414	     -0.00029296	      0.00247908	      0.00869780	      0.00605065	     -0.00810955	      0.01958057	     -0.01857212	      0.00247908	      0.00869780	      0.00605065	      0.00054624	      0.01815194	     -0.00953817	      0.00392768	      0.00483674	      0.01591789	      0.00000000	      0.00764945	      0.00000000	     -0.00710111	     -0.03281636	     -0.00630658	      0.01757418	     -0.00066198	     -0.00617488	     -0.00088239	      0.01479047	     -0.00605065	      0.00243707	      0.02134534	     -0.01764772	     -0.00592459	      0.01281561	     -0.00542037	     -0.01235340	      0.02705984	     -0.03029525	     -0.02319415	      0.01432827	     -0.00726918	     -0.01537873	      0.03126168	     -0.03785856
      1.83333333	     -0.31935036	      0.13526174	     -0.13526174	      0.31935036	     -0.06466195	      0.52257516	      0.23489394	     -0.23489394	     -0.52257516	      0.06466195	     99.76828371	     75.60903722	     -1.74128504	    -27.40753730	     29.89556998	     39.21574064	      0.30774918	     -0.07298385	      0.34013898	     -0.03649193	     31.38904511	     -3.00217506	    -19.13758110	      3.20178280	     -7.99922545	     12.03719358	     17.01894897	    -13.85377206	     -5.83374661	      3.50012628	     13.61986617	     15.19254647	     -3.06518826	     -4.79322684	     -4.51033244	     20.14804131	      1.45726056	    -14.13632087	    -13.18053536	      5.01315192	      0.00088885	     -0.03102649	     -0.00485192	      0.01657224	     -0.01832128	     -0.00755332	      0.00465240	     -0.06677364	     -0.00320904	      0.00770137	     -0.18351129	     -0.00038062	     -0.00470588	      0.00134843	      0.00015189	      0.00007021	      0.00002808	      0.00014042	      0.00008987	      0.00026961	      0.00015166	     -0.00001026	     -0.00023742	     -0.00028490	      0.00247830	      0.00869505	      0.00604873	     -0.00810698	      0.01957436	     -0.01856623	      0.00247830	      0.00869505	      0.00604873	      0.00054607	      0.01814618	     -0.00953515	      0.00392676	      0.00483521	      0.01591564	      0.00000000	      0.00764456	      0.00000000	     -0.00709885	     -0.03280595	     -0.00630252	      0.01768385	     -0.00066960	     -0.00627839	     -0.00088211	      0.01478578	     -0.00604873	      0.00243629	      0.02133857	     -0.01764212	     -0.00592271	      0.01281154	     -0.00541865	     -0.01234949	      0.02705126	     -0.03028565	     -0.02318679	      0.01432372	     -0.00726687	     -0.01537385	      0.03125176	     -0.03784656
      1.86666667	     -0.31908912	      0.13515109	     -0.13515109	      0.31908912	     -0.06460906	      0.52214767	      0.23470178	     -0.23470178	     -0.52214767	      0.06460906	     99.75127176	     75.54718570	     -1.74098813	    -27.60898919	     30.08549422	     39.07044594	      0.31036374	     -0.07465746	      0.34236434	     -0.03732873	     31.51935783	     -3.09526160	    -19.03447747	      3.25401930	     -8.06500008	     12.01903405	     17.00071846	    -13.85841715	     -5.95696620	      3.46389106	     13.56791980	     15.17738933	     -3.11472521	     -4.81775296	     -4.53843508	     20.13942477	      1.48431606	    -14.12687661	    -13.16795652	      5.01449996	      0.00089513	     -0.03104826	     -0.00485542	      0.01657168	     -0.01837287	     -0.00756866	      0.00466313	     -0.06676669	     -0.00319733	      0.00768678	     -0.18351428	     -0.00037950	     -0.00468844	      0.00134256	      0.00015286	      0.00007172	      0.00002869	      0.00014343	      0.00009180	      0.00027539	      0.00015491	     -0.00001039	     -0.00023606	     -0.00028327	      0.00247627	      0.00868793	      0.00604378	     -0.00810034	      0.01955834	     -0.01855105	      0.00247627	      0.00868793	      0.00604378	      0.00054562	      0.01813134	     -0.00952735	      0.00392441	      0.00483125	      0.01590983	      0.00000000	      0.00763197	      0.00000000	     -0.00709305	     -0.03277911	     -0.00629207	      0.01777986	     -0.00067633	     -0.00637016	     -0.00088138	      0.01477368	     -0.00604378	      0.00243430	      0.02132111	     -0.01762769	     -0.00591787	      0.01280106	     -0.00541422	     -0.01233938	      0.02702913	     -0.03026087	     -0.02316782	      0.01431201	     -0.00726093	     -0.01536127	      0.03122620	     -0.03781560
      1.90000000	     -0.31635981	      0.13399509	     -0.13399509	      0.31635981	     -0.06405643	      0.51768151	      0.23269428	     -0.23269428	     -0.51768151	      0.06405643	    100.61039805	     74.90099764	     -1.75598271	    -31.33057628	     29.95522716	     42.74912359	      0.27158899	     -0.12580992	      0.30821161	     -0.06290496	     30.99835741	     -6.63210473	    -14.07650858	      5.05943715	     -9.68622388	     11.52436306	     17.37006886	    -13.66147606	     -6.81121287	      2.92978278	     12.27592087	     14.82905451	     -3.31709782	     -5.12650232	     -6.02393554	     20.32149197	      1.29680710	    -14.12106022	    -12.43306067	      4.96840347	      0.00089083	     -0.03103333	     -0.00485302	      0.01657091	     -0.01833748	     -0.00717127	      0.00439132	     -0.06694245	     -0.00349367	      0.00805818	     -0.18343680	     -0.00040309	     -0.00512988	      0.00149324	      0.00012464	      0.00011547	      0.00004619	      0.00023094	      0.00014780	      0.00044340	      0.00024942	     -0.00000981	     -0.00024114	     -0.00028937	      0.00245509	      0.00861362	      0.00599208	     -0.00803106	      0.01939105	     -0.01839237	      0.00245509	      0.00861362	      0.00599208	      0.00054095	      0.01797625	     -0.00944586	      0.00389972	      0.00478993	      0.01584856	      0.00000000	      0.00750111	      0.00000000	     -0.00703238	     -0.03249874	     -0.00618340	      0.01945602	     -0.00080276	     -0.00815732	     -0.00087385	      0.01464732	     -0.00599208	      0.00241348	      0.02113874	     -0.01747691	     -0.00586725	      0.01269157	     -0.00536791	     -0.01223384	      0.02679794	     -0.03000204	     -0.02296966	      0.01418959	     -0.00719882	     -0.01522988	      0.03095911	     -0.03749214
      1.93333333	     -0.31618972	      0.13392304	     -0.13392304	      0.31618972	     -0.06402199	      0.51740318	      0.23256917	     -0.23256917	     -0.51740318	      0.06402199	    100.61665020	     74.86072769	     -1.75609183	    -31.50855351	     30.08175492	     42.58699693	      0.27304350	     -0.12627589	      0.30953673	     -0.06313795	     31.08512224	     -6.72350886	    -14.01705663	      5.09228966	     -9.70042694	     11.52548471	     17.37260585	    -13.65967065	     -6.87012840	      2.89852286	     12.26803326	     14.82674120	     -3.31998319	     -5.12478759	     -6.02574301	     20.32031495	      1.31783869	    -14.11379811	    -12.42866058	      4.97043101	      0.00089501	     -0.03104783	     -0.00485535	      0.01657159	     -0.01837186	     -0.00718917	      0.00440330	     -0.06693471	     -0.00348061	      0.00804173	     -0.18344030	     -0.00040227	     -0.00511043	      0.00148651	      0.00012604	      0.00011584	      0.00004634	      0.00023169	      0.00014828	      0.00044484	      0.00025022	     -0.00000991	     -0.00024030	     -0.00028836	      0.00245377	      0.00860899	      0.00598886	     -0.00802674	      0.01938063	     -0.01838248	      0.00245377	      0.00860899	      0.00598886	      0.00054066	      0.01796659	     -0.00944078	      0.00389818	      0.00478735	      0.01584471	      0.00000000	      0.00749299	      0.00000000	     -0.00702860	     -0.03248127	     -0.00617666	      0.01953156	     -0.00080890	     -0.00824697	     -0.00087338	      0.01463944	     -0.00598886	      0.00241218	      0.02112738	     -0.01746752	     -0.00586410	      0.01268475	     -0.00536502	     -0.01222726	      0.02678353	     -0.02998591	     -0.02295731	      0.01418196	     -0.00719495	     -0.01522169	      0.03094246	     -0.03747198
